<mxfile host="app.diagrams.net" modified="2023-05-22T18:41:27.629Z" agent="Mozilla/5.0 (Windows NT 10.0; Win64; x64) AppleWebKit/537.36 (KHTML, like Gecko) Chrome/113.0.0.0 Safari/537.36" version="21.3.2" etag="O6QFMJ4-thz5qTcBUNWi" type="github">
  <diagram name="第 1 页" id="45WYWvDvAj6vAbXt5QO3">
    <mxGraphModel>
      <root>
        <mxCell id="0" />
        <mxCell id="1" parent="0" />
      </root>
    </mxGraphModel>
  </diagram>
</mxfile>
